HIERARCHY
ROOT Hips
{
     OFFSET 59.03190 97.53520 71.77120
     CHANNELS 6 Xposition Yposition Zposition Zrotation Xrotation Yrotation
     JOINT Spine
     {
          OFFSET -0.00000 11.89050 -0.00000
          CHANNELS 3 Zrotation Xrotation Yrotation
          JOINT Spine1
          {
               OFFSET 0.00000 25.65740 0.12766
               CHANNELS 3 Zrotation Xrotation Yrotation
               JOINT HEad
               {
                    OFFSET 0.00000 8.73416 0.01134
                    CHANNELS 3 Zrotation Xrotation Yrotation
                    End Site
                    {
                         OFFSET -0.29000 12.77420 2.51395
                    }
               }
               JOINT LeftShoulder1
               {
                    OFFSET 8.99000 -0.36225 -0.22000
                    CHANNELS 3 Zrotation Xrotation Yrotation
                    JOINT LeftArm
                    {
                         OFFSET 10.28270 -0.00338 0.32212
                         CHANNELS 3 Zrotation Xrotation Yrotation
                         JOINT LeftForeArm
                         {
                              OFFSET 32.76690 0.09914 -1.42434
                              CHANNELS 3 Zrotation Xrotation Yrotation
                              JOINT LeftHand
                              {
                                   OFFSET 27.56430 0.08536 1.02216
                                   CHANNELS 3 Zrotation Xrotation Yrotation
                                   End Site
                                   {
                                        OFFSET 16.74430 -0.60000 1.50291
                                   }
                              }
                         }
                    }
               }
               JOINT RightShoulder
               {
                    OFFSET -8.99000 -0.36225 -0.22000
                    CHANNELS 3 Zrotation Xrotation Yrotation
                    JOINT RightArm
                    {
                         OFFSET -10.28270 -0.00338 0.32212
                         CHANNELS 3 Zrotation Xrotation Yrotation
                         JOINT RightForeArm
                         {
                              OFFSET -32.89710 0.09914 -1.42434
                              CHANNELS 3 Zrotation Xrotation Yrotation
                              JOINT RightHand
                              {
                                   OFFSET -27.49210 0.08536 1.02216
                                   CHANNELS 3 Zrotation Xrotation Yrotation
                                   End Site
                                   {
                                        OFFSET -16.63120 -0.60000 1.50291
                                   }
                              }
                         }
                    }
               }
          }
     }
     JOINT LeftUpLeg
     {
          OFFSET 8.94580 -8.66707 0.10165
          CHANNELS 3 Zrotation Xrotation Yrotation
          JOINT LeftLeg
          {
               OFFSET -0.00000 -44.42270 1.37270
               CHANNELS 3 Zrotation Xrotation Yrotation
               JOINT LeftFoot
               {
                    OFFSET -0.25355 -42.09240 -1.46059
                    CHANNELS 3 Zrotation Xrotation Yrotation
                    JOINT LeftToes
                    {
                         OFFSET -0.04000 -4.41509 8.49910
                         CHANNELS 3 Zrotation Xrotation Yrotation
                         End Site
                         {
                              OFFSET 0.08000 -0.04745 9.77979
                         }
                    }
               }
          }
     }
     JOINT RightUpLeg
     {
          OFFSET -8.94580 -8.66707 0.10165
          CHANNELS 3 Zrotation Xrotation Yrotation
          JOINT RightLeg
          {
               OFFSET -0.00000 -44.42270 1.37270
               CHANNELS 3 Zrotation Xrotation Yrotation
               JOINT RightFoot
               {
                    OFFSET 0.25355 -42.09240 -1.46059
                    CHANNELS 3 Zrotation Xrotation Yrotation
                    JOINT RightToes
                    {
                         OFFSET 0.04000 -4.41509 8.49910
                         CHANNELS 3 Zrotation Xrotation Yrotation
                         End Site
                         {
                              OFFSET -0.08000 -0.13745 9.77979
                         }
                    }
               }
          }
     }
}
MOTION
Frames: 21
Frame Time: 0.01667
-79.47310 99.73740 54.12040 0.72581 -2.29802 -40.57390 1.68027 2.97246 3.13895 4.14241 6.01102 6.40781 -8.77060 -4.75267 14.23310 -0.00000 -0.00000 0.00000 -106.31200 -49.51930 -105.60400 -31.07580 27.45940 -68.95250 18.89490 5.96303 -20.14180 -3.60173 0.24952 7.34624 70.51420 3.72882 97.75160 34.61350 -5.96003 49.46360 -3.50410 9.03240 30.87500 5.74157 -14.34200 -15.06680 -1.59647 16.65010 7.03126 1.21098 -1.93220 -0.06465 -2.12911 1.52872 8.14756 -14.34420 11.81780 -18.56910 1.80818 18.76390 -6.45455 14.06170 -8.01495 -0.12990 1.14247 -14.41620 5.93932 
-79.55820 99.75490 54.09490 0.60226 -2.45197 -40.48340 1.57881 3.03412 3.11204 4.02414 6.12211 6.33397 -8.45427 -4.75061 14.21760 -0.00000 -0.00000 0.00000 -105.64500 -49.47140 -105.22900 -30.91170 27.22830 -69.02030 18.75390 5.99116 -20.16040 -3.50975 0.25608 7.28492 69.71170 3.60239 98.15570 34.74100 -6.98957 48.92620 -3.77751 8.92714 31.54940 5.74601 -14.21980 -14.86150 -1.55165 16.79790 6.96243 0.93080 -1.97114 -0.05005 -2.13485 1.79175 7.84515 -14.33540 12.13140 -18.28690 1.96149 18.68750 -6.92809 14.62870 -8.17974 -0.10784 1.03707 -13.72500 6.53554 
-79.63000 99.77100 54.07480 0.49281 -2.57238 -40.40660 1.49061 3.08234 3.08735 3.91473 6.20911 6.27071 -8.11151 -4.69929 14.10810 -0.00000 -0.00000 0.00000 -105.13400 -49.35300 -104.93500 -30.75060 27.10720 -69.10960 18.69080 6.01097 -20.12480 -3.36727 0.26445 7.07735 69.24360 3.78514 98.39240 34.77570 -7.75503 48.51400 -3.90137 8.87389 31.99930 5.76358 -14.13930 -14.73770 -1.54221 16.96280 6.92765 0.60655 -2.08905 -0.03258 -2.19521 2.13978 7.68331 -14.31940 12.37280 -18.04070 2.08049 18.65240 -7.31551 15.12450 -8.29112 -0.09135 0.94627 -13.16090 7.00159 
-79.67730 99.78700 54.06530 0.38912 -2.63926 -40.35810 1.42515 3.10725 3.06693 3.82936 6.25389 6.22561 -7.69355 -4.54834 13.84440 -0.00000 -0.00000 0.00000 -104.85900 -49.11430 -104.75500 -30.62730 27.16370 -69.21430 18.75760 6.01635 -20.00310 -3.13205 0.27623 6.67851 69.29090 4.44237 98.37000 34.61430 -8.13180 48.28220 -3.79105 8.90672 32.10010 5.80671 -14.11100 -14.74440 -1.57562 17.15280 6.97390 0.23218 -2.30445 -0.01259 -2.31458 2.56790 7.68323 -14.27640 12.51360 -17.90210 2.12873 18.66770 -7.49693 15.45160 -8.29678 -0.08876 0.89780 -12.86840 7.22995 
-79.68890 99.80580 54.06960 0.25983 -2.65019 -40.35870 1.38555 3.10164 3.05537 3.78131 6.24228 6.20719 -7.13288 -4.24192 13.39430 -0.00000 -0.00000 0.00000 -104.76400 -48.72290 -104.63600 -30.56930 27.39030 -69.31360 18.94880 6.00623 -19.81190 -2.76733 0.29365 6.18404 69.78640 5.43969 98.05360 34.28370 -8.15036 48.23380 -3.51875 9.00112 31.88080 5.88860 -14.10910 -14.87630 -1.63100 17.35970 7.14194 -0.14047 -2.56166 0.00611 -2.44420 2.97537 7.75107 -14.18980 12.56810 -17.92830 2.09294 18.71780 -7.37612 15.53440 -8.15135 -0.10735 0.91059 -12.94740 7.18170 
-79.64860 99.82870 54.08840 0.06257 -2.60930 -40.43420 1.37142 3.06082 3.05967 3.77806 6.16435 6.22573 -6.37552 -3.74981 12.73910 -0.00000 -0.00000 0.00000 -104.67000 -48.15850 -104.44800 -30.55250 27.69570 -69.40550 19.18800 5.98654 -19.61950 -2.27712 0.31765 5.75379 70.50250 6.42377 97.47020 33.97860 -7.96871 48.34880 -3.29463 9.08312 31.48790 6.02535 -14.09560 -15.07570 -1.67519 17.57120 7.42029 -0.39926 -2.77471 0.01820 -2.52395 3.22336 7.79521 -14.05820 12.56540 -18.10390 2.00438 18.78740 -6.94648 15.35440 -7.82397 -0.15050 0.98617 -13.42160 6.88764 
-79.53590 99.85190 54.12240 -0.24111 -2.51871 -40.60840 1.37975 2.99121 3.08845 3.82608 6.03154 6.29186 -5.41400 -3.12504 11.88510 -0.00000 -0.00000 0.00000 -104.41500 -47.41480 -104.09300 -30.53190 27.97660 -69.50920 19.38040 5.96716 -19.48910 -1.74082 0.34439 5.44879 71.23730 7.13043 96.74330 33.91770 -7.84076 48.57820 -3.31498 9.08608 31.10320 6.23636 -14.04940 -15.28660 -1.69977 17.79350 7.77549 -0.39552 -2.87389 0.01830 -2.51189 3.17758 7.79819 -13.89020 12.53140 -18.36260 1.91275 18.86540 -6.26268 14.94720 -7.31263 -0.21533 1.10982 -14.23560 6.40790 
-79.32940 99.86730 54.17660 -0.67463 -2.38076 -40.89670 1.40138 2.91527 3.14905 3.93015 5.88626 6.41265 -4.29809 -2.50360 10.87990 -0.00000 -0.00000 0.00000 -103.99000 -46.50510 -103.61200 -30.47890 28.21790 -69.64750 19.49110 5.95768 -19.40530 -1.27435 0.36454 5.15949 71.90560 7.57220 96.05220 34.20520 -7.98875 48.85510 -3.66351 8.98285 30.85980 6.54054 -13.98140 -15.52330 -1.75605 18.06840 8.24462 -0.02851 -2.83986 0.00273 -2.39161 2.75554 7.78808 -13.69140 12.48110 -18.65650 1.82396 18.95000 -5.35610 14.41350 -6.65857 -0.29262 1.25428 -15.24860 5.81487 
-79.01200 99.86590 54.25970 -1.24080 -2.20245 -41.29690 1.42146 2.85718 3.23539 4.08571 5.77443 6.57279 -3.10870 -2.00148 9.80791 -0.00000 -0.00000 0.00000 -103.49800 -45.48290 -103.14300 -30.36930 28.48470 -69.82800 19.53800 5.96799 -19.28690 -0.96411 0.36823 4.72808 72.49420 7.90159 95.51450 34.80780 -8.43017 49.13900 -4.34556 8.77094 30.80360 6.93877 -13.93410 -15.85780 -1.92207 18.47610 8.93124 0.64351 -2.73258 -0.02688 -2.17981 2.00791 7.77665 -13.46400 12.40870 -18.97170 1.68316 19.06640 -4.22920 13.93170 -5.93767 -0.37210 1.38866 -16.26410 5.21264 
-78.57160 99.84230 54.37650 -1.92567 -2.00046 -41.78480 1.42127 2.82447 3.31724 4.27209 5.70925 6.71503 -1.90322 -1.60594 8.76356 -0.00000 -0.00000 0.00000 -102.99700 -44.46190 -102.78100 -30.17570 28.81190 -70.03010 19.52450 6.00649 -19.07980 -0.83897 0.35315 4.11539 73.00220 8.18905 95.10590 35.59350 -8.92545 49.43710 -5.32895 8.45867 30.89740 7.40072 -13.96200 -16.33690 -2.23973 19.11030 9.91145 1.38361 -2.67506 -0.05985 -1.92306 1.14047 7.71582 -13.21930 12.29520 -19.29570 1.42791 19.26290 -2.93115 13.70430 -5.23822 -0.44837 1.48833 -17.07330 4.75733 
-77.99870 99.79760 54.52070 -2.71001 -1.80614 -42.33630 1.37836 2.81038 3.35164 4.45034 5.67558 6.75897 -0.67486 -1.17361 7.80624 -0.00000 -0.00000 0.00000 -102.40200 -43.58070 -102.50700 -29.84770 29.14020 -70.25030 19.44040 6.07352 -18.79190 -0.86829 0.32707 3.43290 73.45040 8.37750 94.68980 36.37580 -9.11532 49.77890 -6.47970 8.08931 31.02700 7.87897 -14.09790 -16.92120 -2.70693 20.03060 11.18730 1.89675 -2.77611 -0.07997 -1.66776 0.40186 7.49252 -12.99040 12.12800 -19.58210 1.05018 19.57990 -1.58724 13.82710 -4.61970 -0.52212 1.54363 -17.53560 4.60154 
-77.28460 99.73630 54.68140 -3.57679 -1.66584 -42.95220 1.26611 2.81168 3.30912 4.56760 5.66452 6.64550 0.60373 -0.52341 6.94849 -0.00000 -0.00000 0.00000 -101.55700 -42.91980 -102.23300 -29.28650 29.37750 -70.55680 19.31960 6.15940 -18.43430 -0.98612 0.30102 2.84159 73.88130 8.38548 94.14090 36.97920 -8.77617 50.17870 -7.54008 7.75235 31.04530 8.32531 -14.32410 -17.49630 -3.30060 21.22930 12.70760 1.99159 -3.05950 -0.07739 -1.42825 -0.06693 6.97612 -12.84050 11.91510 -19.73880 0.61950 20.02980 -0.32590 14.17070 -4.05544 -0.59793 1.56810 -17.72090 4.73325 
-76.42350 99.66610 54.86140 -4.51576 -1.61913 -43.64380 1.08270 2.82796 3.18052 4.57842 5.67720 6.35791 1.88904 0.44844 6.20411 -0.00000 -0.00000 0.00000 -100.37400 -42.45490 -101.88200 -28.42220 29.46420 -71.01550 19.22640 6.24786 -18.02310 -1.12261 0.28174 2.43400 74.27980 8.19958 93.47140 37.34270 -8.03890 50.60570 -8.26155 7.53471 30.88750 8.71195 -14.56880 -17.95580 -4.00722 22.60310 14.41820 1.69848 -3.43444 -0.05775 -1.17512 -0.31368 6.08248 -12.82790 11.70790 -19.70460 0.23970 20.54400 0.84219 14.41270 -3.40902 -0.68320 1.59589 -17.92720 4.87899 
-75.41690 99.59210 55.08180 -5.50704 -1.67329 -44.41350 0.83653 2.84800 2.97105 4.45220 5.69407 5.90622 3.08014 1.70429 5.63571 -0.00000 -0.00000 0.00000 -98.82130 -42.09360 -101.39200 -27.31120 29.32980 -71.57100 19.18460 6.31693 -17.66180 -1.20272 0.27127 2.20650 74.53940 7.91347 92.85500 37.53540 -7.39973 50.95010 -8.50379 7.47830 30.61550 9.04007 -14.76110 -18.26430 -4.85629 23.99350 16.28880 1.26277 -3.76648 -0.03595 -0.87033 -0.50667 4.84470 -12.97500 11.56390 -19.54240 -0.04717 20.99680 2.06720 14.26740 -2.53910 -0.78076 1.65702 -18.44780 4.67602 
-74.28040 99.51660 55.37260 -6.51470 -1.78235 -45.27010 0.53062 2.83978 2.69048 4.17959 5.65162 5.30815 4.14448 3.09784 5.35584 -0.00000 -0.00000 0.00000 -96.84820 -41.75410 -100.69100 -26.11590 28.85220 -72.05510 19.17060 6.34434 -17.51480 -1.14427 0.27054 2.12398 74.55880 7.71599 92.53320 37.61660 -7.47282 51.01860 -8.19089 7.59757 30.31720 9.35411 -14.87250 -18.41560 -5.90633 25.24890 18.25760 1.00581 -3.99792 -0.02375 -0.52878 -0.75465 3.46286 -13.24280 11.51300 -19.37760 -0.29816 21.21970 3.52813 13.73770 -1.40412 -0.88562 1.74315 -19.30110 3.98251 
-73.04230 99.44380 55.75780 -7.49610 -1.86667 -46.25340 0.16866 2.76287 2.35287 3.77785 5.46895 4.59051 5.16757 4.43101 5.51235 -0.00000 -0.00000 0.00000 -94.41530 -41.39780 -99.74650 -25.01450 27.91770 -72.30350 19.14750 6.32652 -17.64840 -0.92589 0.27978 2.17365 74.32960 7.74542 92.66220 37.55990 -8.59344 50.65030 -7.28173 7.89850 30.01420 9.73866 -14.89600 -18.39390 -7.21929 26.23550 20.23150 1.18828 -4.16976 -0.02678 -0.21827 -1.02889 2.23057 -13.54900 11.56400 -19.25160 -0.60175 21.01590 5.27196 13.12230 -0.09134 -0.99329 1.80948 -20.17440 2.97424 
-71.73240 99.37900 56.24170 -8.40713 -1.86310 -47.42160 -0.23548 2.59499 1.98021 3.29650 5.10028 3.79200 6.28022 5.46021 6.27865 -0.00000 -0.00000 0.00000 -91.58120 -41.00480 -98.61770 -24.16200 26.47270 -72.22270 19.06610 6.28766 -17.97810 -0.67313 0.29507 2.34682 73.93290 7.89755 93.21780 37.36600 -10.49050 49.85460 -5.86652 8.34822 29.69230 10.27090 -14.82300 -18.20560 -8.84694 26.83670 22.17800 1.93878 -4.33297 -0.04598 0.00724 -1.25490 1.34369 -13.82920 11.70640 -19.09340 -0.99227 20.24030 7.19826 12.74430 1.22340 -1.10540 1.81645 -20.63660 1.90776 
-70.37130 99.32630 56.80650 -9.20630 -1.74612 -48.81620 -0.64632 2.34242 1.59871 2.80565 4.55830 2.96230 7.56603 5.91884 7.79894 -0.00000 -0.00000 0.00000 -88.51290 -40.55160 -97.45670 -23.64410 24.54160 -71.80090 18.87380 6.26109 -18.37320 -0.62095 0.30661 2.60008 73.51770 7.85883 94.06330 37.16090 -12.31400 48.79280 -4.25390 8.84668 29.39160 10.95620 -14.65330 -17.88640 -10.74540 26.99110 24.11690 3.17497 -4.49692 -0.07651 0.13591 -1.36504 0.80652 -14.06670 11.90100 -18.79680 -1.40882 18.86740 9.09331 12.65460 2.38260 -1.21844 1.75343 -20.41590 0.84032 
-68.96860 99.28940 57.41900 -9.86323 -1.52109 -50.45130 -1.02367 2.03193 1.23805 2.36242 3.89991 2.16762 8.99341 5.63889 10.06290 -0.00000 -0.00000 0.00000 -85.42160 -40.02430 -96.45040 -23.29650 22.31170 -71.17210 18.57190 6.27114 -18.69120 -0.95607 0.30265 2.85333 73.23520 7.36740 95.09630 37.09320 -13.14030 47.71010 -2.86375 9.26669 29.20370 11.69110 -14.41550 -17.47640 -12.69110 26.76080 26.03620 4.57862 -4.66136 -0.10790 0.16496 -1.26739 0.54525 -14.28430 12.04880 -18.31410 -1.73564 17.06490 10.63330 12.58180 3.29839 -1.30619 1.63268 -19.44900 -0.34511 
-67.51980 99.27360 58.04050 -10.39480 -1.20820 -52.30970 -1.31407 1.70073 0.92063 2.00060 3.21453 1.48424 10.39490 4.62818 12.85640 -0.00000 -0.00000 0.00000 -82.48510 -39.45780 -95.74760 -22.71280 20.14870 -70.57490 18.24150 6.32890 -18.75850 -1.74012 0.27437 2.97908 73.10910 6.45122 96.32600 37.14470 -12.63090 46.95480 -2.00375 9.52280 29.16390 12.32370 -14.15390 -17.02160 -14.36270 26.32180 27.89990 5.77610 -4.81444 -0.13078 0.09190 -0.91729 0.52764 -14.49210 11.99630 -17.75160 -1.89297 15.22300 11.40020 12.16890 3.89473 -1.32549 1.47859 -17.67260 -1.66328 
-66.00970 99.29460 58.64920 -10.87410 -0.83405 -54.35110 -1.46254 1.39804 0.66083 1.74249 2.61157 0.96364 11.55690 3.03037 15.86660 -0.00000 -0.00000 0.00000 -79.81100 -38.97970 -95.40330 -21.74970 18.37820 -70.11460 17.98040 6.42162 -18.51360 -2.95275 0.22051 2.79374 73.01510 5.40238 97.85210 37.12770 -11.25800 46.84060 -1.76658 9.59251 29.23120 12.75340 -13.85880 -16.59490 -15.53000 25.79360 29.73960 6.61781 -4.86531 -0.14859 -0.04886 -0.44465 0.71513 -14.67340 11.61650 -17.37100 -1.83321 13.83430 10.88160 11.27660 4.04115 -1.24819 1.31053 -14.82040 -2.80171 
